<svg width="22" height="22" viewBox="0 0 22 22" fill="none" xmlns="http://www.w3.org/2000/svg">
<path d="M20.7097 7.70968C21.9597 6.45968 21.3897 4.99968 20.7097 4.28968L17.7097 1.28968C16.4497 0.0396849 14.9997 0.609685 14.2897 1.28968L12.5897 2.99968H9.99969C8.09969 2.99968 6.99968 3.99968 6.43968 5.14968L1.99968 9.58969V13.5897L1.28968 14.2897C0.0396849 15.5497 0.609685 16.9997 1.28968 17.7097L4.28968 20.7097C4.82968 21.2497 5.40968 21.4497 5.95968 21.4497C6.66968 21.4497 7.31968 21.0997 7.70968 20.7097L10.4097 17.9997H13.9997C15.6997 17.9997 16.5597 16.9397 16.8697 15.8997C17.9997 15.5997 18.6197 14.7397 18.8697 13.8997C20.4197 13.4997 20.9997 12.0297 20.9997 10.9997V7.99968H20.4097L20.7097 7.70968ZM18.9997 10.9997C18.9997 11.4497 18.8097 11.9997 17.9997 11.9997H16.9997V12.9997C16.9997 13.4497 16.8097 13.9997 15.9997 13.9997H14.9997V14.9997C14.9997 15.4497 14.8097 15.9997 13.9997 15.9997H9.58969L6.30968 19.2797C5.99968 19.5697 5.81968 19.3997 5.70968 19.2897L2.71968 16.3097C2.42968 15.9997 2.59968 15.8197 2.70968 15.7097L3.99968 14.4097V10.4097L5.99968 8.40968V9.99969C5.99968 11.2097 6.79969 12.9997 8.99969 12.9997C11.1997 12.9997 11.9997 11.2097 11.9997 9.99969H18.9997V10.9997ZM19.2897 6.28968L17.5897 7.99968H9.99969V9.99969C9.99969 10.4497 9.80969 10.9997 8.99969 10.9997C8.18969 10.9997 7.99968 10.4497 7.99968 9.99969V6.99968C7.99968 6.53968 8.16969 4.99968 9.99969 4.99968H13.4097L15.6897 2.71968C15.9997 2.42968 16.1797 2.59968 16.2897 2.70968L19.2797 5.68968C19.5697 5.99968 19.3997 6.17968 19.2897 6.28968Z" fill="#7D8198"/>
</svg>
