<svg width="28" height="28" viewBox="0 0 28 28" fill="none" xmlns="http://www.w3.org/2000/svg">
<path d="M13.9974 0.666016C21.3614 0.666016 27.3307 6.63535 27.3307 13.9993C27.3307 21.3633 21.3614 27.3327 13.9974 27.3327C6.6334 27.3327 0.664062 21.3633 0.664062 13.9993C0.664062 6.63535 6.6334 0.666016 13.9974 0.666016ZM13.9974 3.33268C11.1684 3.33268 8.45531 4.45649 6.45492 6.45688C4.45454 8.45726 3.33073 11.1704 3.33073 13.9993C3.33073 16.8283 4.45454 19.5414 6.45492 21.5418C8.45531 23.5422 11.1684 24.666 13.9974 24.666C16.8264 24.666 19.5395 23.5422 21.5399 21.5418C23.5403 19.5414 24.6641 16.8283 24.6641 13.9993C24.6641 11.1704 23.5403 8.45726 21.5399 6.45688C19.5395 4.45649 16.8264 3.33268 13.9974 3.33268ZM13.9974 5.99935C14.324 5.99939 14.6392 6.11929 14.8832 6.3363C15.1273 6.55331 15.2832 6.85235 15.3214 7.17668L15.3307 7.33268V13.4473L18.9401 17.0567C19.1792 17.2966 19.318 17.6186 19.3284 17.9572C19.3387 18.2958 19.2198 18.6256 18.9957 18.8797C18.7717 19.1338 18.4593 19.2931 18.1221 19.3252C17.7849 19.3573 17.448 19.2599 17.1801 19.0527L17.0547 18.942L13.0547 14.942C12.8475 14.7346 12.7144 14.4647 12.6761 14.174L12.6641 13.9993V7.33268C12.6641 6.97906 12.8045 6.63992 13.0546 6.38987C13.3046 6.13982 13.6438 5.99935 13.9974 5.99935Z" fill="#1C75BC"/>
</svg>
