<svg width="10" height="6" viewBox="0 0 10 6" fill="none" xmlns="http://www.w3.org/2000/svg">
<path d="M5.00409 6.00018C4.87248 6.00095 4.74202 5.97572 4.62018 5.92596C4.49835 5.87619 4.38753 5.80287 4.29409 5.71018L0.294092 1.71018C0.105788 1.52188 0 1.26649 0 1.00018C0 0.733883 0.105788 0.478489 0.294092 0.290185C0.482395 0.101881 0.73779 -0.00390625 1.00409 -0.00390625C1.27039 -0.00390625 1.52579 0.101881 1.71409 0.290185L5.00409 3.59018L8.29409 0.300185C8.48539 0.136359 8.73147 0.0507523 8.98314 0.0604734C9.23482 0.0701946 9.47356 0.174527 9.65165 0.352622C9.82975 0.530717 9.93408 0.769455 9.9438 1.02113C9.95352 1.27281 9.86792 1.51888 9.70409 1.71018L5.70409 5.71018C5.51783 5.89493 5.26643 5.99908 5.00409 6.00018Z" fill="#737791"/>
</svg>
