<svg width="11" height="6" viewBox="0 0 11 6" fill="none" xmlns="http://www.w3.org/2000/svg">
<path d="M5.49808 5.50019L5.49729 5.50019C5.43149 5.50057 5.36626 5.48796 5.30534 5.46308C5.24468 5.4383 5.18948 5.40184 5.14288 5.35577C5.14269 5.35558 5.14249 5.35539 5.14229 5.35519L1.14374 1.35663C1.0492 1.2621 0.996094 1.13388 0.996094 1.00018C0.996094 0.866492 1.0492 0.738274 1.14374 0.643738C1.23827 0.549203 1.36649 0.496094 1.50019 0.496094C1.63378 0.496094 1.7619 0.549122 1.85641 0.643521C1.85649 0.643593 1.85656 0.643666 1.85663 0.643738L5.1461 3.9432L5.49965 4.29783L5.85374 3.94374L9.12774 0.669741C9.22151 0.594496 9.33944 0.555447 9.45994 0.560101C9.58578 0.564961 9.70515 0.617128 9.7942 0.706176C9.88324 0.795221 9.93541 0.914591 9.94027 1.04043C9.94492 1.16093 9.90587 1.27886 9.83063 1.37263L5.84808 5.35519C5.84788 5.35538 5.84769 5.35558 5.84749 5.35577C5.75442 5.44778 5.62897 5.49964 5.49808 5.50019Z" fill="#151D48" stroke="white"/>
</svg>
