<svg width="21" height="20" viewBox="0 0 21 20" fill="none" xmlns="http://www.w3.org/2000/svg">
<path d="M5.5 6.11001V2.28001C5.5 2.1115 5.53327 1.94464 5.59791 1.78902C5.66255 1.63339 5.75728 1.49207 5.87667 1.37314C5.99606 1.25422 6.13776 1.16004 6.29363 1.09601C6.4495 1.03197 6.61649 0.999352 6.785 1.00001H20.47L18.32 4.72001V12.28C18.3207 12.4487 18.2878 12.6159 18.2234 12.7718C18.159 12.9277 18.0643 13.0693 17.9448 13.1884C17.8253 13.3074 17.6833 13.4016 17.5272 13.4654C17.371 13.5292 17.2037 13.5613 17.035 13.56H15.735V17.39C15.735 17.7291 15.601 18.0544 15.3622 18.2951C15.1233 18.5358 14.7991 18.6724 14.46 18.675H4.415C4.24606 18.675 4.0788 18.6416 3.92284 18.5766C3.76689 18.5117 3.62534 18.4165 3.50635 18.2966C3.38736 18.1767 3.29328 18.0344 3.22955 17.8779C3.16581 17.7215 3.13368 17.5539 3.135 17.385V9.83501L1 6.11001H5.5ZM5.5 6.11001H6.965M15.735 12.09V7.39501C15.735 7.05507 15.6003 6.72898 15.3604 6.48814C15.1205 6.2473 14.7949 6.11133 14.455 6.11001H6.955M15.75 12.09V13.56M8.18 4.29001H15.845M7.235 9.93501C7.48298 9.93501 7.7208 10.0335 7.89614 10.2089C8.07149 10.3842 8.17 10.622 8.17 10.87C8.17 11.118 8.07149 11.3558 7.89614 11.5312C7.7208 11.7065 7.48298 11.805 7.235 11.805C6.98702 11.805 6.7492 11.7065 6.57386 11.5312C6.39851 11.3558 6.3 11.118 6.3 10.87C6.3 10.622 6.39851 10.3842 6.57386 10.2089C6.7492 10.0335 6.98702 9.93501 7.235 9.93501ZM11.61 9.93501C11.7985 9.92301 11.9862 9.96837 12.1484 10.0651C12.3106 10.1619 12.4397 10.3055 12.5187 10.477C12.5977 10.6486 12.6229 10.8401 12.591 11.0262C12.559 11.2124 12.4715 11.3845 12.3398 11.5199C12.2081 11.6553 12.0386 11.7477 11.8534 11.7848C11.6682 11.822 11.4761 11.8022 11.3024 11.7281C11.1287 11.6539 10.9815 11.5289 10.8802 11.3695C10.7789 11.2101 10.7283 11.0238 10.735 10.835C10.7401 10.5939 10.8381 10.3642 11.0086 10.1937C11.1791 10.0232 11.4089 9.92511 11.65 9.92001L11.61 9.93501ZM6.235 13.515H12.655C12.4501 14.2081 12.0265 14.8163 11.4475 15.2488C10.8686 15.6814 10.1652 15.9151 9.4425 15.9151C8.71978 15.9151 8.01645 15.6814 7.43747 15.2488C6.8585 14.8163 6.43493 14.2081 6.23 13.515H6.235Z" stroke="#7D8198" stroke-linecap="round" stroke-linejoin="round"/>
</svg>
