<svg width="24" height="24" viewBox="0 0 24 24" fill="none" xmlns="http://www.w3.org/2000/svg">
<path d="M18.72 14.8408C19.07 13.9908 19.26 13.0808 19.26 12.0808C19.26 11.3608 19.15 10.6708 18.96 10.0308C18.31 10.1808 17.63 10.2608 16.92 10.2608C15.466 10.2623 14.0329 9.91428 12.7415 9.24598C11.4502 8.57768 10.3384 7.60871 9.5 6.42076C8.6031 8.59093 6.91112 10.3366 4.77 11.3008C4.73 11.5508 4.73 11.8208 4.73 12.0808C4.73 13.0355 4.91804 13.9808 5.2834 14.8629C5.64875 15.7449 6.18425 16.5463 6.85933 17.2214C8.22272 18.5848 10.0719 19.3508 12 19.3508C13.05 19.3508 14.06 19.1208 14.97 18.7108C15.54 19.8008 15.8 20.3408 15.78 20.3408C14.14 20.8908 12.87 21.1608 12 21.1608C9.58 21.1608 7.27 20.2108 5.57 18.5008C4.536 17.4699 3.76737 16.2038 3.33 14.8108H2V10.2608H3.09C3.42024 8.65327 4.17949 7.16517 5.28719 5.95435C6.39489 4.74353 7.80971 3.85516 9.38153 3.38352C10.9534 2.91187 12.6235 2.87453 14.2149 3.27546C15.8062 3.6764 17.2593 4.50065 18.42 5.66076C19.6802 6.91601 20.5398 8.51686 20.89 10.2608H22V14.8108H21.94L18.38 18.0808L13.08 17.4808V15.8108H17.91L18.72 14.8408ZM9.27 11.8508C9.57 11.8508 9.86 11.9708 10.07 12.1908C10.281 12.4035 10.3995 12.6911 10.3995 12.9908C10.3995 13.2904 10.281 13.578 10.07 13.7908C9.86 14.0008 9.57 14.1208 9.27 14.1208C8.64 14.1208 8.13 13.6208 8.13 12.9908C8.13 12.3608 8.64 11.8508 9.27 11.8508ZM14.72 11.8508C15.35 11.8508 15.85 12.3608 15.85 12.9908C15.85 13.6208 15.35 14.1208 14.72 14.1208C14.09 14.1208 13.58 13.6208 13.58 12.9908C13.58 12.6884 13.7001 12.3984 13.9139 12.1847C14.1277 11.9709 14.4177 11.8508 14.72 11.8508Z" fill="#7D8198"/>
</svg>
