<svg width="22" height="20" viewBox="0 0 22 20" fill="none" xmlns="http://www.w3.org/2000/svg">
<g clip-path="url(#clip0_686_779)">
<path d="M10.5861 5.41667C13.9293 5.41667 16.9108 7.19167 18.3663 10C16.9108 12.8083 13.9381 14.5833 10.5861 14.5833C7.23403 14.5833 4.26131 12.8083 2.80582 10C4.26131 7.19167 7.24285 5.41667 10.5861 5.41667ZM10.5861 3.75C6.1755 3.75 2.40887 6.34167 0.882812 10C2.40887 13.6583 6.1755 16.25 10.5861 16.25C14.9966 16.25 18.7633 13.6583 20.2893 10C18.7633 6.34167 14.9966 3.75 10.5861 3.75ZM10.5861 7.91667C11.8034 7.91667 12.7913 8.85 12.7913 10C12.7913 11.15 11.8034 12.0833 10.5861 12.0833C9.36875 12.0833 8.38078 11.15 8.38078 10C8.38078 8.85 9.36875 7.91667 10.5861 7.91667ZM10.5861 6.25C8.39842 6.25 6.61655 7.93333 6.61655 10C6.61655 12.0667 8.39842 13.75 10.5861 13.75C12.7737 13.75 14.5556 12.0667 14.5556 10C14.5556 7.93333 12.7737 6.25 10.5861 6.25Z" fill="#A3AED0"/>
</g>
<defs>
<clipPath id="clip0_686_779">
<rect width="21.1707" height="20" fill="white"/>
</clipPath>
</defs>
</svg>
