<svg width="24" height="24" viewBox="0 0 24 24" fill="none" xmlns="http://www.w3.org/2000/svg">
<g clip-path="url(#clip0_977_51)">
<g clip-path="url(#clip1_977_51)">
<path fill-rule="evenodd" clip-rule="evenodd" d="M10.1897 5.80614C10.2807 5.63555 10.4169 5.49337 10.5835 5.39526C10.7501 5.29716 10.9405 5.24694 11.1337 5.25014L13.2338 5.28214C13.4265 5.28527 13.6147 5.34141 13.7777 5.44443C13.9407 5.54744 14.0722 5.69335 14.1578 5.86614L14.9978 7.55414L16.4818 7.42814C16.6719 7.41196 16.8629 7.44791 17.0341 7.53213C17.2054 7.61635 17.3505 7.74566 17.4538 7.90614L18.5138 9.55014C18.6276 9.72718 18.6856 9.93434 18.6803 10.1448C18.6749 10.3552 18.6064 10.5591 18.4837 10.7301L17.7038 11.8221L18.5338 12.9181C18.7918 13.2581 18.8177 13.7221 18.5977 14.0901L17.5977 15.7661C17.4992 15.9313 17.3572 16.0662 17.1872 16.1561C17.0172 16.2461 16.8257 16.2876 16.6338 16.2761L15.0638 16.1801L14.0977 18.1581C14.0112 18.3347 13.8769 18.4834 13.71 18.5874C13.5431 18.6913 13.3504 18.7464 13.1538 18.7461H10.9897C10.7935 18.746 10.6012 18.6908 10.4347 18.5869C10.2682 18.4829 10.1341 18.3344 10.0478 18.1581L9.13975 16.3001L7.45975 16.4521C7.26595 16.4695 7.07113 16.4328 6.89702 16.3459C6.72292 16.259 6.57637 16.1255 6.47375 15.9601L5.41175 14.2501C5.29911 14.0686 5.24451 13.8571 5.25523 13.6438C5.26595 13.4304 5.34148 13.2254 5.47175 13.0561L6.43175 11.8061L5.65975 10.7281C5.53736 10.5569 5.46924 10.3529 5.46425 10.1425C5.45926 9.93204 5.51761 9.72498 5.63175 9.54814L6.69175 7.90414C6.79487 7.74397 6.93961 7.61487 7.11048 7.53067C7.28136 7.44647 7.47192 7.41034 7.66175 7.42614L9.25575 7.56214L10.1897 5.80614ZM11.3857 6.75414L10.4418 8.53014C10.3453 8.71187 10.1976 8.86125 10.017 8.95974C9.83633 9.05823 9.63075 9.10149 9.42575 9.08414L7.80575 8.94614L7.05775 10.1061L7.84575 11.2061C7.97684 11.3891 8.04566 11.6094 8.04206 11.8344C8.03846 12.0595 7.96263 12.2775 7.82575 12.4561L6.84975 13.7241L7.60175 14.9361L9.31375 14.7801C9.52588 14.7605 9.73897 14.8058 9.92472 14.9101C10.1105 15.0144 10.2601 15.1728 10.3538 15.3641L11.2718 17.2461H12.8717L13.8477 15.2521C13.9389 15.0661 14.0831 14.9112 14.2621 14.8069C14.4411 14.7027 14.647 14.6537 14.8538 14.6661L16.4498 14.7621L17.1537 13.5821L16.3057 12.4621C16.1709 12.2836 16.0965 12.0666 16.0937 11.8428C16.0908 11.619 16.1595 11.4001 16.2898 11.2181L17.0877 10.1061L16.3398 8.94614L14.8197 9.07414C14.6097 9.09205 14.3991 9.0463 14.2154 8.94285C14.0317 8.83941 13.8834 8.68305 13.7898 8.49414L12.9358 6.77814L11.3857 6.75414Z" fill="#7D8198"/>
<path d="M20.5621 14.8001C19.9554 16.673 18.7513 18.2953 17.1344 19.4184C15.5174 20.5415 13.5769 21.1034 11.61 21.0181C9.64313 20.9327 7.75851 20.2048 6.24492 18.9459C4.73134 17.687 3.6723 15.9665 3.23009 14.0481L4.93209 13.7121L1.69209 10.3601L-0.00390625 14.6941L1.79009 14.3421C2.29077 16.5941 3.51917 18.6185 5.28547 20.1025C7.05178 21.5865 9.25767 22.4475 11.5623 22.5524C13.8668 22.6574 16.1418 22.0004 18.0357 20.683C19.9296 19.3657 21.3368 17.4612 22.0401 15.2641L20.5621 14.8001ZM22.2341 9.72006C21.7332 7.46816 20.5046 5.4439 18.7381 3.96009C16.9717 2.47629 14.7657 1.61553 12.4612 1.51082C10.1566 1.40612 7.88168 2.06331 5.98797 3.38083C4.09425 4.69835 2.68715 6.60286 1.98409 8.80006L3.41009 9.26406C4.01661 7.39114 5.2205 5.76874 6.83729 4.64548C8.45408 3.52223 10.3946 2.96009 12.3614 3.0452C14.3283 3.13031 16.213 3.85798 17.7267 5.11669C19.2404 6.37541 20.2996 8.09574 20.7421 10.0141L19.0401 10.3521L22.2801 13.6961L23.9961 9.36806L22.2341 9.72006Z" fill="#7D8198"/>
<path fill-rule="evenodd" clip-rule="evenodd" d="M12 11.25C11.8011 11.25 11.6103 11.329 11.4697 11.4697C11.329 11.6103 11.25 11.8011 11.25 12C11.25 12.1989 11.329 12.3897 11.4697 12.5303C11.6103 12.671 11.8011 12.75 12 12.75C12.1989 12.75 12.3897 12.671 12.5303 12.5303C12.671 12.3897 12.75 12.1989 12.75 12C12.75 11.8011 12.671 11.6103 12.5303 11.4697C12.3897 11.329 12.1989 11.25 12 11.25ZM9.75 12C9.75 11.4033 9.98705 10.831 10.409 10.409C10.831 9.98705 11.4033 9.75 12 9.75C12.5967 9.75 13.169 9.98705 13.591 10.409C14.0129 10.831 14.25 11.4033 14.25 12C14.25 12.5967 14.0129 13.169 13.591 13.591C13.169 14.0129 12.5967 14.25 12 14.25C11.4033 14.25 10.831 14.0129 10.409 13.591C9.98705 13.169 9.75 12.5967 9.75 12Z" fill="#7D8198"/>
</g>
</g>
<defs>
<clipPath id="clip0_977_51">
<rect width="24" height="24" fill="white"/>
</clipPath>
<clipPath id="clip1_977_51">
<rect width="24" height="24" fill="white"/>
</clipPath>
</defs>
</svg>
