<svg width="10" height="6" viewBox="0 0 10 6" fill="none" xmlns="http://www.w3.org/2000/svg">
<path d="M5.02933 5.50214L5.02854 5.50215C4.96274 5.50253 4.89751 5.48991 4.83659 5.46503C4.77593 5.44025 4.72073 5.40379 4.67413 5.35773C4.67394 5.35753 4.67374 5.35734 4.67354 5.35715L0.674989 1.35858C0.580453 1.26405 0.527344 1.13583 0.527344 1.00214C0.527344 0.868445 0.580453 0.740227 0.674989 0.645691C0.769524 0.551156 0.897741 0.498047 1.03144 0.498047C1.16503 0.498047 1.29315 0.551075 1.38766 0.645474C1.38774 0.645546 1.38781 0.645619 1.38788 0.645691L4.67735 3.94515L5.0309 4.29978L5.38499 3.94569L8.65899 0.671694C8.75276 0.596449 8.87069 0.5574 8.99119 0.562054C9.11703 0.566915 9.2364 0.619081 9.32545 0.708129C9.41449 0.797174 9.46666 0.916544 9.47152 1.04238C9.47617 1.16288 9.43712 1.28081 9.36188 1.37459L5.37933 5.35714C5.37913 5.35734 5.37894 5.35753 5.37874 5.35772C5.28567 5.44973 5.16022 5.50159 5.02933 5.50214Z" fill="white" stroke="white"/>
</svg>
