<svg width="25" height="24" viewBox="0 0 25 24" fill="none" xmlns="http://www.w3.org/2000/svg">
<path d="M12.5023 0.75C10.3835 0.751693 8.30838 1.35165 6.51562 2.4808H18.4725C16.6845 1.35461 14.6154 0.754774 12.5023 0.75Z" fill="#B22234"/>
<path d="M6.51221 2.48047C5.73993 2.96936 5.0301 3.55055 4.39844 4.21118H20.6125C19.9716 3.54864 19.2518 2.96738 18.4691 2.48047H6.51221Z" fill="white"/>
<path d="M4.4003 4.21191C3.88969 4.74277 3.43245 5.32249 3.03516 5.94272H21.9792C21.582 5.3225 21.1249 4.74278 20.6144 4.21191H4.4003Z" fill="#B22234"/>
<path d="M3.03326 5.94238C2.67818 6.49156 2.37166 7.07066 2.11719 7.6731H22.8722C22.6245 7.0714 22.3251 6.49232 21.9773 5.94238H3.03326Z" fill="white"/>
<path d="M2.11838 7.67285C1.88803 8.23396 1.70344 8.81278 1.56641 9.40366H23.4328C23.2933 8.81257 23.1063 8.23374 22.8734 7.67285H2.11838Z" fill="#B22234"/>
<path d="M1.56607 9.4043C1.43018 9.97325 1.33887 10.5519 1.29297 11.1351H23.713C23.6647 10.5517 23.5709 9.97305 23.4324 9.4043H1.56607Z" fill="white"/>
<path d="M1.2933 11.1348C1.26776 11.4226 1.25332 11.7112 1.25 12.0001C1.25109 12.2889 1.26331 12.5776 1.28662 12.8655H23.7067C23.7322 12.5777 23.7467 12.289 23.75 12.0001C23.7489 11.7113 23.7367 11.4226 23.7134 11.1348H1.2933Z" fill="#B22234"/>
<path d="M1.28906 12.8652C1.33743 13.4486 1.43125 14.0273 1.56967 14.596H23.436C23.5719 14.0271 23.6632 13.4484 23.7091 12.8652H1.28906Z" fill="white"/>
<path d="M1.56641 14.5957C1.70585 15.1868 1.89292 15.7656 2.12579 16.3265H22.8808C23.1111 15.7654 23.2957 15.1866 23.4328 14.5957H1.56641Z" fill="#B22234"/>
<path d="M2.125 16.3271C2.3727 16.9288 2.67213 17.5079 3.01993 18.0579H21.9639C22.319 17.5087 22.6255 16.9296 22.88 16.3271H2.125Z" fill="white"/>
<path d="M3.02344 18.0576C3.42061 18.6778 3.87773 19.2576 4.38821 19.7884H20.6023C21.1129 19.2576 21.5701 18.6779 21.9674 18.0576H3.02344Z" fill="#B22234"/>
<path d="M4.38672 19.7881C5.02759 20.4506 5.74747 21.0319 6.53015 21.5188H18.487C19.2593 21.0299 19.9691 20.4487 20.6008 19.7881H4.38672Z" fill="white"/>
<path d="M6.53125 21.5195C8.31928 22.6457 10.3884 23.2456 12.5015 23.2503C14.6202 23.2486 16.6954 22.6487 18.4881 21.5195H6.53125Z" fill="#B22234"/>
<path d="M12.5 0.75C9.51631 0.75 6.65483 1.93526 4.54505 4.04505C2.43526 6.15483 1.25 9.01631 1.25 12C1.25147 12.2973 1.26473 12.5944 1.28973 12.8906H13.3906V0.794586C13.0945 0.767959 12.7973 0.753086 12.5 0.75Z" fill="#3C3B6E"/>
<path d="M8.472 1.50847C8.32211 1.56319 8.17339 1.62109 8.02596 1.68214L8.1903 1.80702L8.07915 2.16618L8.37358 1.94636L8.67662 2.17671L8.56282 1.805L8.86586 1.57878H8.49352L8.472 1.50847ZM10.3803 1.20117L10.2634 1.57875H9.89235L10.1927 1.80704L10.0815 2.16616L10.376 1.94635L10.679 2.17669L10.5652 1.80505L10.8682 1.57875H10.4959L10.3803 1.20117ZM12.3827 1.20117L12.2658 1.57875H11.8947L12.1951 1.80704L12.0839 2.16616L12.3783 1.94635L12.6814 2.17669L12.5676 1.80505L12.8706 1.57875H12.4983L12.3827 1.20117ZM5.57747 3.14726C5.52457 3.18671 5.47202 3.22663 5.41982 3.26701L5.67305 3.45955L5.57747 3.14726ZM7.37672 2.484L7.25983 2.86158H6.88878L7.18913 3.08987L7.07796 3.44899L7.37237 3.22918L7.67544 3.45952L7.56163 3.08788L7.86466 2.86158H7.49235L7.37672 2.484ZM9.3791 2.484L9.26222 2.86158H8.89116L9.19152 3.08987L9.08035 3.44899L9.37476 3.22918L9.67783 3.45952L9.56402 3.08788L9.86705 2.86158H9.49473L9.3791 2.484ZM11.3815 2.484L11.2646 2.86158H10.8935L11.1939 3.08987L11.0827 3.44899L11.3771 3.22918L11.6802 3.45952L11.5664 3.08788L11.8694 2.86158H11.4971L11.3815 2.484ZM4.47948 4.11415C4.36851 4.23161 4.26009 4.35145 4.15428 4.47358L4.07436 4.73176L4.36879 4.51194L4.67183 4.74229L4.55803 4.37068L4.86107 4.14436H4.48873L4.47948 4.11415ZM6.37553 3.76678L6.25863 4.14436H5.88758L6.18794 4.37265L6.07676 4.73176L6.37118 4.51196L6.67425 4.7423L6.56044 4.37066L6.86347 4.14436H6.49115L6.37553 3.76678ZM8.37791 3.76678L8.26102 4.14436H7.88997L8.19032 4.37265L8.07915 4.73176L8.37357 4.51196L8.67663 4.7423L8.56282 4.37066L8.86585 4.14436H8.49354L8.37791 3.76678ZM10.3803 3.76678L10.2634 4.14436H9.89235L10.1927 4.37265L10.0815 4.73176L10.376 4.51196L10.679 4.7423L10.5652 4.37066L10.8682 4.14436H10.4959L10.3803 3.76678ZM12.3827 3.76678L12.2658 4.14436H11.8947L12.1951 4.37265L12.0839 4.73176L12.3783 4.51196L12.6814 4.7423L12.5676 4.37066L12.8706 4.14436H12.4983L12.3827 3.76678ZM3.45693 5.32704C3.35327 5.46518 3.25281 5.60569 3.15563 5.74846L3.07323 6.0146L3.36757 5.79478L3.6707 6.02513L3.5569 5.65352L3.85985 5.4272H3.4876L3.45693 5.32704ZM5.37433 5.04961L5.25744 5.42718H4.88639L5.18674 5.65548L5.07557 6.01459L5.36999 5.79479L5.67306 6.02513L5.55925 5.65348L5.86228 5.42718H5.48996L5.37433 5.04961ZM7.37672 5.04961L7.25983 5.42718H6.88878L7.18913 5.65548L7.07796 6.01459L7.37237 5.79479L7.67544 6.02513L7.56163 5.65348L7.86466 5.42718H7.49235L7.37672 5.04961ZM9.3791 5.04961L9.26222 5.42718H8.89116L9.19152 5.65548L9.08035 6.01459L9.37476 5.79479L9.67783 6.02513L9.56402 5.65348L9.86705 5.42718H9.49473L9.3791 5.04961ZM11.3815 5.04961L11.2646 5.42718H10.8935L11.1939 5.65548L11.0827 6.01459L11.3771 5.79479L11.6802 6.02513L11.5664 5.65348L11.8694 5.42718H11.4971L11.3815 5.04961ZM2.57949 6.71003C2.51225 6.83605 2.44742 6.96333 2.38503 7.09181L2.66948 7.30797L2.55568 6.93635L2.85872 6.71003H2.57949ZM4.37314 6.33244L4.25625 6.71001H3.8852L4.18556 6.93831L4.07438 7.29742L4.3688 7.07762L4.67186 7.30796L4.55806 6.93631L4.86109 6.71001H4.48877L4.37314 6.33244ZM6.37553 6.33244L6.25863 6.71001H5.88758L6.18794 6.93831L6.07676 7.29742L6.37118 7.07762L6.67425 7.30796L6.56044 6.93631L6.86347 6.71001H6.49115L6.37553 6.33244ZM8.37791 6.33244L8.26102 6.71001H7.88997L8.19032 6.93831L8.07915 7.29742L8.37357 7.07762L8.67663 7.30796L8.56282 6.93631L8.86585 6.71001H8.49354L8.37791 6.33244ZM10.3803 6.33244L10.2634 6.71001H9.89235L10.1927 6.93831L10.0815 7.29742L10.376 7.07762L10.679 7.30796L10.5652 6.93631L10.8682 6.71001H10.4959L10.3803 6.33244ZM12.3827 6.33244L12.2658 6.71001H11.8947L12.1951 6.93831L12.0839 7.29742L12.3783 7.07762L12.6814 7.30796L12.5676 6.93631L12.8706 6.71001H12.4983L12.3827 6.33244ZM3.37195 7.61522L3.25506 7.99279H2.884L3.18436 8.22109L3.07319 8.5802L3.3676 8.3604L3.67067 8.59074L3.55687 8.21909L3.85989 7.99279H3.48757L3.37195 7.61522ZM5.37433 7.61522L5.25744 7.99279H4.88639L5.18674 8.22109L5.07557 8.5802L5.36999 8.3604L5.67306 8.59074L5.55925 8.21909L5.86228 7.99279H5.48996L5.37433 7.61522ZM7.37672 7.61522L7.25983 7.99279H6.88878L7.18913 8.22109L7.07796 8.5802L7.37237 8.3604L7.67544 8.59074L7.56163 8.21909L7.86466 7.99279H7.49235L7.37672 7.61522ZM9.3791 7.61522L9.26222 7.99279H8.89116L9.19152 8.22109L9.08035 8.5802L9.37476 8.3604L9.67783 8.59074L9.56402 8.21909L9.86705 7.99279H9.49473L9.3791 7.61522ZM11.3815 7.61522L11.2646 7.99279H10.8935L11.1939 8.22109L11.0827 8.5802L11.3771 8.3604L11.6802 8.59074L11.5664 8.21909L11.8694 7.99279H11.4971L11.3815 7.61522ZM2.37076 8.89804L2.25387 9.27562H1.88281L2.18317 9.50392L2.072 9.86303L2.36642 9.64322L2.66948 9.87357L2.55567 9.50192L2.8587 9.27562H2.48639L2.37076 8.89804ZM4.37314 8.89804L4.25625 9.27562H3.8852L4.18556 9.50392L4.07438 9.86303L4.3688 9.64322L4.67186 9.87357L4.55806 9.50192L4.86109 9.27562H4.48877L4.37314 8.89804ZM6.37553 8.89804L6.25863 9.27562H5.88758L6.18794 9.50392L6.07676 9.86303L6.37118 9.64322L6.67425 9.87357L6.56044 9.50192L6.86347 9.27562H6.49115L6.37553 8.89804ZM8.37791 8.89804L8.26102 9.27562H7.88997L8.19032 9.50392L8.07915 9.86303L8.37357 9.64322L8.67663 9.87357L8.56282 9.50192L8.86585 9.27562H8.49354L8.37791 8.89804ZM10.3803 8.89804L10.2634 9.27562H9.89235L10.1927 9.50392L10.0815 9.86303L10.376 9.64322L10.679 9.87357L10.5652 9.50192L10.8682 9.27562H10.4959L10.3803 8.89804ZM12.3827 8.89804L12.2658 9.27562H11.8947L12.1951 9.50392L12.0839 9.86303L12.3783 9.64322L12.6814 9.87357L12.5676 9.50192L12.8706 9.27562H12.4983L12.3827 8.89804ZM3.37195 10.1809L3.25506 10.5584H2.884L3.18436 10.7867L3.07319 11.1459L3.3676 10.9261L3.67067 11.1564L3.55687 10.7847L3.85989 10.5584H3.48757L3.37195 10.1809ZM5.37433 10.1809L5.25744 10.5584H4.88639L5.18674 10.7867L5.07557 11.1459L5.36999 10.9261L5.67306 11.1564L5.55925 10.7847L5.86228 10.5584H5.48996L5.37433 10.1809ZM7.37672 10.1809L7.25983 10.5584H6.88878L7.18913 10.7867L7.07796 11.1459L7.37237 10.9261L7.67544 11.1564L7.56163 10.7847L7.86466 10.5584H7.49235L7.37672 10.1809ZM9.3791 10.1809L9.26222 10.5584H8.89116L9.19152 10.7867L9.08035 11.1459L9.37476 10.9261L9.67783 11.1564L9.56402 10.7847L9.86705 10.5584H9.49473L9.3791 10.1809ZM11.3815 10.1809L11.2646 10.5584H10.8935L11.1939 10.7867L11.0827 11.1459L11.3771 10.9261L11.6802 11.1564L11.5664 10.7847L11.8694 10.5584H11.4971L11.3815 10.1809ZM2.37076 11.4637L2.25387 11.8412H1.88281L2.18317 12.0695L2.072 12.4286L2.36642 12.2088L2.66948 12.4392L2.55567 12.0675L2.8587 11.8412H2.48639L2.37076 11.4637ZM4.37314 11.4637L4.25625 11.8412H3.8852L4.18556 12.0695L4.07438 12.4286L4.3688 12.2088L4.67186 12.4392L4.55806 12.0675L4.86109 11.8412H4.48877L4.37314 11.4637ZM6.37553 11.4637L6.25863 11.8412H5.88758L6.18794 12.0695L6.07676 12.4286L6.37118 12.2088L6.67425 12.4392L6.56044 12.0675L6.86347 11.8412H6.49115L6.37553 11.4637ZM8.37791 11.4637L8.26102 11.8412H7.88997L8.19032 12.0695L8.07915 12.4286L8.37357 12.2088L8.67663 12.4392L8.56282 12.0675L8.86585 11.8412H8.49354L8.37791 11.4637ZM10.3803 11.4637L10.2634 11.8412H9.89235L10.1927 12.0695L10.0815 12.4286L10.376 12.2088L10.679 12.4392L10.5652 12.0675L10.8682 11.8412H10.4959L10.3803 11.4637ZM12.3827 11.4637L12.2658 11.8412H11.8947L12.1951 12.0695L12.0839 12.4286L12.3783 12.2088L12.6814 12.4392L12.5676 12.0675L12.8706 11.8412H12.4983L12.3827 11.4637Z" fill="white"/>
</svg>
